<svg fill="#000000" xmlns="http://www.w3.org/2000/svg"  viewBox="0 0 48 48" width="96px" height="96px"><path d="M35.178 33.008l.073.026-.751-.326c-.253-.115-.525-.182-.803-.197-.076-.01-.152-.01-.228 0-.148.013-.285.086-.378.202-.113.096-.185.231-.202.378-.011.032-.011.066 0 .098.334.353.762.603 1.233.72.471.145.943.285 1.404.414.467.155.864.471 1.119.891.005.019.005.038 0 .057 0 .088-.212.233-.622.44-.207.119-.518.383-1.036.777-.323.264-.67.498-1.036.699-.311.139-.583.352-.793.622-.005.005-.009.01-.013.015-.165.19-.145.478.044.643.099.095.231.147.368.145.098-.002.193-.027.28-.073.668-.421 1.31-.883 1.922-1.383.621-.514 1.267-.997 1.937-1.445.373-.228.554-.466.554-.71-.012-.163-.1-.311-.238-.399C37.196 33.869 36.228 33.324 35.178 33.008zM14.183 37.742L12.039 36.8c-.711-.302-1.404-.648-2.072-1.036.469-.584 1.1-1.016 1.813-1.243.709-.228 1.363-.6 1.922-1.093.08-.077.125-.184.124-.295-.004-.157-.078-.303-.202-.399-.148-.114-.331-.174-.518-.171h-.3c-.662.497-1.386.904-2.155 1.212-.762.314-1.483.717-2.15 1.202-.323.289-.511.701-.518 1.134.038.164.154.3.311.363.14.047.285.104.425.161 1.416.601 2.745 1.247 3.989 1.937.165.12.32.251.466.394.095.041.197.063.3.062.255.002.503-.086.699-.249.2-.143.305-.383.275-.627C14.456 37.973 14.35 37.809 14.183 37.742zM21.984 32.531v-.01c-.176-.274-.397-.518-.653-.72-.205-.143-.45-.217-.699-.212-.084-.002-.167.014-.243.047l-1.554.518c-.099.031-.202.045-.306.041-.184.013-.367-.038-.518-.145-.188-.164-.348-.358-.471-.575l-.43.29c.182.305.417.575.694.798.218.137.473.204.73.192.131-.001.262-.02.388-.057l1.435-.518c.097-.038.201-.057.306-.057.158-.01.314.032.445.119.181.148.338.322.466.518L21.984 32.531zM26.403 40.861c-2.346-.13-2.808 1.906-1.171 3.367 2.367 2.129 8.127 1.663 7.34-3.051C29.682 43.632 28.475 40.97 26.403 40.861zM21.239 40.861c-2.072.109-3.279 2.771-6.169.316-.787 4.714 4.973 5.18 7.34 3.051C24.046 42.767 23.585 40.731 21.239 40.861zM19.757 34.065c-.418-.016-.825.133-1.134.414-.35.343-.498.842-.394 1.321.051.451.231.877.518 1.228.244.327.628.519 1.036.518.267-.005.529-.076.761-.207.466-.28.694-.808.694-1.601.06-.52-.128-1.038-.508-1.399C20.442 34.149 20.102 34.054 19.757 34.065zM19.736 36.214c-.286 0-.518-.232-.518-.518s.232-.518.518-.518c.286 0 .518.232.518.518S20.022 36.214 19.736 36.214zM24.984 40.182c.106-.085.204-.179.295-.28.085-.096.162-.2.228-.311.063-.097.118-.2.166-.306.036-.077.066-.156.088-.238v-.047c-.011-.014-.019-.03-.026-.047-.135.207-.303.391-.497.544-.149.14-.325.248-.518.316-.195.067-.4.101-.606.098-.175.003-.35-.021-.518-.073-.144-.046-.279-.116-.399-.207-.121-.097-.231-.209-.326-.332-.1-.135-.187-.279-.259-.43-.011.012-.02.026-.026.041 0 0 0 .031 0 .041.071.198.161.389.269.57.098.174.22.332.363.471.128.134.279.244.445.326.164.069.34.108.518.114l.021.021c.143.001.286-.026.42-.078C24.75 40.329 24.872 40.263 24.984 40.182zM27.827 37.515c.267-.004.529-.075.761-.207.51-.364.778-.979.699-1.601-.026-.699-.192-1.171-.518-1.399-.288-.192-.628-.289-.974-.28-.419-.014-.826.136-1.134.42-.348.344-.495.843-.388 1.321.048.451.228.879.518 1.228C27.036 37.323 27.42 37.515 27.827 37.515zM27.631 35.235c.286 0 .518.232.518.518 0 .286-.232.518-.518.518s-.518-.232-.518-.518C27.113 35.467 27.345 35.235 27.631 35.235zM33.713 29.175c.196-.997.27-2.576.212-3.919l.05-.245c.071-.349.144-.701.218-1.052.726-1.586 2.016-3.155 3.265-4.674 2.083-2.533 4.238-5.152 4.044-8.201-.013-.203-.067-.402-.16-.584-.308-.605-.647-1.19-1.068-1.842l-.085-.134c-.098-.152-.196-.305-.297-.45-.074-.105-.148-.204-.223-.303l-.092-.123c-.156-.209-.312-.415-.467-.604-.075-.093-.151-.18-.289-.338-.177-.205-.355-.402-.538-.592l-.241-.243c-.21-.208-.421-.405-.623-.582l-.155-.136c-2.626-2.239-5.3-2.825-6.927-3.181l-.897-.202c-2.788-.534-5.791-.97-8.86-.53-.036.006-.072.012-.108.02-1.176.257-2.31.669-3.295 1.188-1.179.535-2.398 1.09-3.443 1.164-.09.006-.18.021-.268.044-1.733.446-3.227 1.517-4.18 2.975L9.143 6.838C9.095 6.905 9.053 6.977 9.018 7.051c-.837 1.75-1.06 3.754-.627 5.644.008.035.017.069.028.104.275.902.602 1.763.917 2.594l.106.276c.714 1.676 1.233 3.438 1.544 5.236.025.146.072.287.139.42.293.581.523 1.196.683 1.827.004.016.028.101.033.117.074.254.149.515.229.777.031.1.071.194.119.282.014.083.024.167.052.249l1.318 3.769c.142.404.449.729.844.892.396.162.841.148 1.227-.037 2.406-1.17 8.039-3.906 15.817.958.242.151.518.229.795.229.203 0 .406-.041.597-.124C33.291 30.065 33.619 29.659 33.713 29.175zM38.513 11.562c-.058 1.79-1.67 3.75-3.371 5.818-.309.376-.62.757-.927 1.14 1.124-2.914 2.201-5.829 3.18-8.779l.039.053c.077.11.152.229.228.347l.093.146C38.047 10.739 38.292 11.151 38.513 11.562zM35.437 7.54c.166.145.332.301.494.462l.194.195c.144.149.286.308.428.471.001.002.066.077.068.078l.167.196c.09.11.178.228.266.345-1.627 1.372-3.858 6.483-4.474 11.472-.169.257-.34.512-.494.776-.676-.448-1.536-.845-2.587-1.179-.2-.064-.416-.121-.628-.18.149-2.12.346-4.308.538-6.303.637-3.375 2.224-5.181 2.933-8.222.947.372 1.963.92 2.983 1.79L35.437 7.54zM29.726 4.909c.644.141 1.395.312 2.202.594-1.39 2.614-2.329 5.447-2.774 8.381-.311 2.065-.466 4.148-.49 6.234-1.169-.308-2.5-.533-3.897-.646-.041-1.02-.064-1.996-.021-2.583.158-2.187.341-8.74 1.566-12.598.81.11 1.643.25 2.518.417L29.726 4.909zM26.126 4.265c-2.633 4.386-2.254 10.092-1.601 15.187-.949-.068-1.923-.083-2.898-.031-.521-3.135-1.057-6.924-1.519-9.945-.146-1.439-.019-2.892.373-4.284.177-.381.279-.684.372-.928.07-.017.137-.045.207-.061C22.715 3.973 24.361 4.036 26.126 4.265zM18.495 5.143c.532-.279 1.095-.493 1.668-.676-.14.259-.26.552-.356.881-.35 1.447-.469 2.94-.352 4.424.219 3.282.796 6.523 1.676 9.686-.911.069-1.815.195-2.689.392-.51-2.158-.421-4.552-.62-6.795-.21-2.68-1.073-5.216-2.179-6.786C16.626 5.979 17.584 5.558 18.495 5.143zM14.104 6.592c.464-.044.922-.148 1.377-.273 1.078 1.567 1.303 4.042 1.545 6.74.196 2.26.414 4.672 1.161 6.846-.742.18-1.462.409-2.141.696-.473-1.914-.737-4.005-1.128-5.916-.58-2.828-.658-5.361-1.616-6.133-.282-.39-.923-.457-.996-.888C12.802 7.164 13.416 6.79 14.104 6.592zM14.424 21.466c-.151-.438-.319-.87-.52-1.288-.354-1.952-.925-3.861-1.679-5.629l-.084-.222c-.292-.769-.593-1.563-.836-2.352-.258-1.18-.127-2.426.372-3.526l.095-.137c.08-.122.177-.227.268-.339-.003.076-.019.151-.012.227.03.188.104.365.218.518.948.756 1.44 3.16 2.015 5.978.398 1.95.859 4.085 1.524 6.031C15.306 20.943 14.853 21.19 14.424 21.466zM22.646 24.365c-2.859 0-5.176.746-6.8 1.433l-.466-1.331c2.167-1.862 6.097-2.271 9.242-2.005 3.502.3 5.826 1.354 6.218 1.896.031.204.052.447.07.704-.034.209-.022.414.028.608.007.252.01.508.007.769C27.852 24.896 25.055 24.365 22.646 24.365z"/></svg>