<svg height="100" viewBox="0 0 50 50" width="100" xmlns="http://www.w3.org/2000/svg"><path d="m12 23.403v-.013-13.001l-.12-.089h-.01l-2.73-2.02c-1.67-1.24-4.05-1.18-5.53.28-.99.98-1.61 2.34-1.61 3.85v3.602zm26-.013v.013l10-7.391v-3.602c0-1.49-.6-2.85-1.58-3.83-1.46-1.457-3.765-1.628-5.424-.403l-2.876 2.123-.12.089zm-24 1.478 10.406 7.692c.353.261.836.261 1.189 0l10.405-7.692v-13.001l-11 8.133-11-8.133zm24 1.021v15.111c0 .552.448 1 1 1h6.5c1.381 0 2.5-1.119 2.5-2.5v-21.003zm-26 0-10-7.392v21.003c0 1.381 1.119 2.5 2.5 2.5h6.5c.552 0 1-.448 1-1z"/></svg>