<svg height="48" viewBox="0 0 24 24" width="48" xmlns="http://www.w3.org/2000/svg"><path d="m5 3c-1.105 0-2 .895-2 2v14c0 1.105.895 2 2 2h14c1.105 0 2-.895 2-2v-14c0-1.105-.895-2-2-2zm0 2h14v14h-14zm2.7792969 1.3164062c-.857 0-1.3710938.5151719-1.3710938 1.2011719s.5141563 1.1992188 1.2851563 1.1992188c.857 0 1.3710937-.5132188 1.3710937-1.1992188s-.5141562-1.2011719-1.2851562-1.2011719zm-1.3027344 3.6835938v7h2.5234375v-7zm4.6054685 0v7h2.523438v-3.826172c0-1.139.81264-1.302734 1.05664-1.302734s.896485.244734.896485 1.302734v3.826172h2.441406v-3.826172c0-2.197-.976266-3.173828-2.197266-3.173828s-1.872265.406562-2.197265.976562v-.976562z"/></svg>