<?xml version="1.0" standalone="no"?>
<!DOCTYPE svg PUBLIC "-//W3C//DTD SVG 20010904//EN"
 "http://www.w3.org/TR/2001/REC-SVG-20010904/DTD/svg10.dtd">
<svg version="1.0" xmlns="http://www.w3.org/2000/svg"
 width="740.000000pt" height="740.000000pt" viewBox="0 0 740.000000 740.000000"
 preserveAspectRatio="xMidYMid meet">
<metadata>
Created by potrace 1.16, written by Peter Selinger 2001-2019
</metadata>
<g transform="translate(0.000000,740.000000) scale(0.100000,-0.100000)"
fill="#000000" stroke="none">
<path d="M3495 7359 c-1576 -79 -2920 -1166 -3335 -2697 -138 -510 -161 -1091
-65 -1620 270 -1479 1448 -2657 2927 -2927 425 -77 911 -77 1336 0 1479 270
2657 1448 2927 2927 77 425 77 911 0 1336 -132 721 -486 1394 -1010 1917 -734
735 -1732 1117 -2780 1064z m595 -55 c832 -97 1569 -452 2155 -1039 521 -521
868 -1177 1000 -1890 44 -242 59 -403 59 -665 0 -262 -15 -423 -59 -665 -169
-914 -693 -1732 -1463 -2284 -496 -355 -1062 -570 -1702 -647 -199 -24 -581
-24 -780 0 -850 102 -1576 451 -2165 1041 -590 589 -939 1315 -1041 2165 -24
199 -24 581 0 780 102 850 451 1576 1041 2165 409 410 890 706 1435 883 304
99 562 147 935 176 100 8 453 -4 585 -20z"/>
<path d="M3098 6928 c-27 -11 -48 -27 -48 -35 0 -10 6 -13 18 -8 9 3 29 9 43
12 l26 5 22 -139 c13 -76 25 -148 28 -160 4 -19 -1 -24 -41 -34 -28 -7 -46
-17 -46 -26 0 -9 7 -12 18 -9 9 3 46 10 82 16 106 17 120 21 120 31 0 5 -20 9
-44 9 -26 0 -46 5 -49 13 -2 7 -17 88 -32 180 -17 99 -33 167 -39 166 -6 0
-32 -10 -58 -21z"/>
<path d="M4166 6929 c-36 -29 -63 -84 -77 -161 -17 -92 -6 -153 36 -195 82
-82 178 -7 205 162 15 97 -5 181 -49 205 -32 17 -86 12 -115 -11z m91 -14 c50
-35 50 -177 2 -281 -36 -75 -90 -86 -122 -24 -35 68 -2 247 55 296 35 28 37
29 65 9z"/>
<path d="M2793 6850 c-71 -41 -72 -71 -2 -34 17 8 33 13 36 11 5 -5 83 -295
83 -308 0 -4 -18 -14 -40 -23 -46 -18 -55 -42 -12 -32 124 30 182 50 182 62 0
7 -6 12 -12 10 -7 -3 -27 -7 -44 -10 l-32 -5 -48 179 c-26 99 -50 180 -53 180
-3 0 -30 -14 -58 -30z"/>
<path d="M4450 6861 c0 -5 18 -12 40 -16 22 -4 40 -11 40 -16 0 -10 -79 -301
-83 -305 -1 -1 -21 1 -44 5 -41 8 -53 6 -53 -9 0 -9 209 -64 216 -57 11 11 -6
25 -37 32 -17 4 -32 12 -35 19 -2 6 16 85 41 174 25 90 45 168 45 173 0 5 -29
9 -65 9 -36 0 -65 -4 -65 -9z"/>
<path d="M2507 6779 c-51 -30 -60 -117 -22 -223 30 -86 70 -137 120 -154 33
-11 43 -10 74 5 49 25 63 55 58 128 -7 83 -41 169 -88 216 -33 33 -45 39 -81
39 -24 0 -51 -5 -61 -11z m96 -39 c45 -39 88 -137 95 -215 4 -54 2 -65 -17
-84 -28 -28 -43 -27 -82 6 -44 37 -90 143 -97 219 -4 53 -2 64 17 83 28 28 44
27 84 -9z"/>
<path d="M4740 6778 c0 -10 14 -18 40 -22 22 -3 40 -9 40 -13 0 -4 -26 -74
-57 -156 -51 -134 -59 -148 -77 -142 -59 17 -79 18 -74 5 2 -7 20 -19 39 -26
19 -7 64 -24 102 -38 49 -19 67 -22 67 -13 0 7 -16 21 -35 30 -19 9 -35 21
-35 27 0 6 27 82 60 169 33 87 60 164 60 170 0 6 -15 11 -34 11 -18 0 -48 3
-65 6 -24 5 -31 3 -31 -8z"/>
<path d="M2255 6661 c-44 -18 -60 -50 -60 -115 1 -107 81 -240 161 -266 40
-14 96 7 115 42 45 83 -41 294 -138 334 -36 16 -49 16 -78 5z m84 -56 c47 -43
100 -147 108 -213 5 -42 2 -53 -16 -71 -11 -11 -27 -21 -35 -21 -60 0 -166
166 -166 260 0 39 4 52 22 64 32 23 43 20 87 -19z"/>
<path d="M5030 6656 c0 -9 6 -16 14 -16 8 0 26 -4 41 -10 l25 -10 -71 -142
c-39 -79 -73 -145 -75 -147 -3 -3 -32 6 -76 24 -12 5 -18 3 -18 -7 0 -11 175
-108 195 -108 3 0 5 6 5 13 0 8 -16 22 -35 33 -19 10 -35 20 -35 21 0 2 36 75
80 163 44 88 80 164 80 169 0 4 -19 11 -42 15 -24 4 -53 9 -65 13 -17 4 -23 1
-23 -11z"/>
<path d="M1941 6476 c-51 -52 -48 -80 5 -40 19 15 36 25 38 23 6 -9 144 -236
154 -255 10 -19 7 -25 -23 -45 -31 -21 -47 -49 -29 -49 4 0 49 26 100 57 61
37 90 61 84 67 -6 6 -22 4 -46 -8 -20 -9 -40 -13 -44 -9 -7 8 -134 215 -166
271 -10 17 -21 32 -24 32 -3 0 -25 -20 -49 -44z"/>
<path d="M5289 6497 c-48 -32 -115 -136 -129 -200 -24 -103 26 -169 115 -153
77 15 173 149 182 255 5 51 3 60 -22 89 -22 27 -34 32 -69 32 -28 0 -55 -8
-77 -23z m131 -38 c34 -63 -101 -289 -172 -289 -63 0 -75 73 -28 166 71 142
161 197 200 123z"/>
<path d="M5570 6350 c0 -5 15 -17 33 -26 17 -9 34 -18 35 -20 4 -2 -123 -175
-174 -236 l-21 -27 -38 26 c-25 17 -40 22 -47 15 -7 -7 19 -32 78 -76 48 -36
91 -66 96 -66 17 0 7 21 -24 49 l-32 28 112 146 c119 157 118 152 48 181 -44
18 -66 20 -66 6z"/>
<path d="M1686 6296 c-53 -65 -46 -94 9 -36 l28 30 99 -133 98 -132 -34 -31
c-18 -18 -30 -37 -27 -43 8 -12 181 112 181 129 0 15 -15 12 -53 -10 l-35 -21
-108 146 c-60 80 -111 145 -115 145 -4 0 -23 -20 -43 -44z"/>
<path d="M1450 6100 c-39 -61 -31 -90 12 -40 l28 34 72 -79 c40 -44 90 -98
110 -121 l37 -40 -30 -37 c-17 -21 -25 -38 -19 -42 14 -9 172 137 160 149 -6
6 -22 -1 -44 -17 l-34 -27 -95 103 c-52 56 -107 117 -122 135 -15 17 -30 32
-35 32 -4 0 -22 -22 -40 -50z"/>
<path d="M5780 6130 c-19 -10 -56 -40 -82 -67 -90 -93 -111 -174 -62 -232 22
-27 33 -31 73 -31 106 0 241 143 241 255 0 80 -88 119 -170 75z m122 -27 c10
-9 18 -27 18 -40 0 -74 -149 -233 -218 -233 -31 0 -62 26 -62 52 0 72 152 238
218 238 14 0 34 -7 44 -17z"/>
<path d="M1265 5928 c-33 -19 -44 -41 -45 -88 0 -54 22 -93 87 -155 91 -88
180 -109 234 -56 61 61 26 164 -84 249 -79 61 -143 78 -192 50z m91 -33 c40
-17 150 -118 170 -157 8 -15 14 -38 14 -52 0 -26 -32 -56 -60 -56 -45 0 -183
110 -216 172 -18 35 -18 73 2 92 19 20 45 20 90 1z"/>
<path d="M5985 5910 c-103 -51 -175 -142 -175 -221 0 -40 4 -51 31 -73 60 -51
153 -22 247 77 58 62 72 90 72 147 0 78 -88 113 -175 70z m127 -27 c39 -35 10
-104 -80 -185 -45 -41 -111 -78 -138 -78 -27 0 -54 30 -54 60 0 38 52 112 113
158 81 63 125 76 159 45z"/>
<path d="M2268 5007 l-358 -101 0 -58 c0 -49 3 -58 18 -58 9 0 132 20 272 45
140 25 259 45 263 45 9 0 5 -2206 -5 -2215 -6 -6 -490 -54 -555 -55 -21 0 -23
-5 -23 -60 l0 -60 573 0 c316 0 716 3 890 7 l317 6 0 59 0 58 -287 0 c-277 1
-673 26 -691 45 -4 3 -7 547 -7 1207 l0 1200 -25 18 c-25 17 -31 16 -382 -83z"/>
<path d="M4078 5007 l-358 -101 0 -58 c0 -49 3 -58 18 -58 9 0 132 20 272 45
140 25 259 45 263 45 9 0 5 -2206 -5 -2215 -6 -6 -490 -54 -555 -55 -21 0 -23
-5 -23 -60 l0 -60 680 0 680 0 0 60 c0 50 -3 60 -17 60 -59 1 -535 49 -541 55
-4 3 -8 231 -10 506 l-3 498 88 -40 c48 -22 347 -161 663 -307 l575 -267 9
-138 9 -137 38 0 39 0 0 355 0 355 -39 0 -38 0 -7 -77 c-3 -42 -6 -107 -6
-144 0 -37 -4 -70 -10 -74 -10 -6 -1180 524 -1180 534 0 3 267 133 593 288
l592 282 6 -117 c4 -64 7 -136 8 -159 l1 -43 40 0 40 0 0 390 0 390 -40 0 -40
0 0 -52 c0 -29 -3 -90 -7 -136 l-6 -84 -655 -324 c-360 -178 -660 -324 -665
-324 -7 0 -8 208 -4 615 l6 614 -27 19 -27 19 -357 -100z"/>
<path d="M6511 5010 c-151 -54 -214 -158 -142 -231 26 -26 36 -29 90 -29 68 0
142 24 202 66 50 34 71 69 73 117 1 32 -5 44 -32 68 -27 24 -41 29 -85 29 -28
-1 -76 -10 -106 -20z m182 -42 c23 -27 22 -41 -10 -79 -60 -71 -250 -129 -296
-90 -61 50 35 146 186 185 61 17 95 12 120 -16z"/>
<path d="M647 4933 c-3 -31 -4 -60 -1 -65 9 -15 22 1 28 37 4 19 10 35 14 35
5 0 73 -28 153 -63 l146 -62 -15 -43 c-14 -43 -10 -65 7 -46 15 15 89 192 83
198 -11 12 -19 5 -38 -29 -10 -19 -24 -35 -30 -35 -6 0 -79 29 -162 65 -84 36
-158 65 -166 65 -9 0 -15 -18 -19 -57z"/>
<path d="M612 4750 c-78 -18 -109 -103 -61 -164 48 -61 199 -114 283 -100 80
13 117 84 81 154 -35 68 -212 132 -303 110z m111 -46 c139 -36 212 -108 161
-158 -39 -39 -133 -29 -244 26 -73 37 -99 72 -80 108 22 41 70 48 163 24z"/>
<path d="M6760 4750 c0 -6 7 -25 16 -41 8 -17 14 -32 12 -33 -4 -4 -303 -96
-310 -96 -3 0 -11 18 -18 40 -13 38 -47 60 -36 23 37 -131 60 -193 71 -193 10
0 11 10 4 41 -6 23 -7 44 -4 48 4 3 81 29 173 58 112 35 167 56 166 65 -2 20
-53 98 -64 98 -6 0 -10 -5 -10 -10z"/>
<path d="M6845 4450 c-3 -5 1 -25 9 -44 l15 -35 -72 -16 c-40 -8 -113 -23
-163 -33 l-91 -19 -11 44 c-11 41 -32 60 -32 29 0 -13 21 -123 35 -183 10 -44
28 -25 22 23 -3 29 -1 47 7 50 6 2 83 19 171 37 88 18 165 36 172 40 8 5 2 23
-19 62 -31 58 -33 61 -43 45z"/>
<path d="M841 4370 c-6 -22 -15 -40 -19 -40 -4 0 -85 16 -180 36 -95 20 -175
35 -177 32 -8 -8 7 -128 16 -128 4 0 11 20 14 44 l7 43 81 -17 c45 -10 117
-26 160 -35 l78 -17 -3 -42 c-5 -70 15 -55 32 24 30 137 30 140 16 140 -7 0
-18 -18 -25 -40z"/>
<path d="M474 4146 c-41 -18 -64 -52 -64 -96 0 -69 58 -112 177 -130 142 -22
233 23 233 115 0 38 -52 90 -111 108 -62 20 -191 22 -235 3z m206 -37 c101
-22 139 -87 77 -133 -59 -44 -267 -13 -310 45 -24 33 -16 63 21 84 32 17 140
19 212 4z"/>
<path d="M6697 4149 c-66 -16 -113 -46 -132 -85 -15 -32 -15 -40 -3 -71 20
-54 55 -75 135 -80 78 -6 179 15 224 48 39 27 56 86 38 125 -21 44 -90 74
-164 73 -33 -1 -77 -5 -98 -10z m210 -55 c37 -28 40 -58 10 -88 -34 -34 -97
-50 -199 -51 -82 0 -89 2 -115 27 -23 23 -26 32 -18 54 26 72 250 111 322 58z"/>
<path d="M454 3851 c-50 -23 -74 -55 -74 -99 0 -43 50 -95 105 -111 51 -14
159 -14 209 0 128 36 128 182 0 218 -64 18 -193 13 -240 -8z m270 -44 c15 -10
32 -29 38 -43 10 -21 8 -28 -12 -49 -29 -31 -77 -45 -153 -45 -112 0 -187 34
-187 84 0 27 27 54 66 66 50 16 217 7 248 -13z"/>
<path d="M6700 3861 c-42 -9 -92 -34 -109 -55 -7 -8 -15 -33 -18 -55 -5 -36
-2 -44 29 -75 42 -42 122 -61 211 -51 74 8 105 20 140 53 21 20 27 35 27 70 0
36 -5 49 -30 72 -46 43 -153 60 -250 41z m210 -56 c66 -34 62 -86 -8 -118 -63
-28 -199 -29 -255 -3 -57 28 -63 78 -14 111 55 36 216 42 277 10z"/>
<path d="M770 3536 l0 -43 -67 -7 c-38 -3 -121 -9 -186 -13 l-119 -6 6 -28 c8
-44 34 -99 45 -99 13 0 14 15 2 57 l-9 31 96 8 c54 4 129 8 167 8 l70 1 5 -39
c3 -22 11 -41 18 -44 11 -3 12 14 7 89 -4 52 -9 102 -12 112 -9 33 -23 17 -23
-27z"/>
<path d="M6576 3493 c-9 -106 -8 -143 4 -143 5 0 13 18 16 40 l7 40 46 -1 c25
0 107 -6 181 -13 74 -7 138 -11 141 -10 3 2 1 30 -4 64 -7 42 -14 60 -25 60
-11 0 -13 -9 -9 -41 l5 -42 -101 7 c-56 4 -130 9 -164 13 l-63 6 0 48 c0 35
-4 49 -14 49 -9 0 -15 -22 -20 -77z"/>
<path d="M800 3266 c0 -29 -5 -46 -15 -49 -7 -3 -88 -19 -180 -34 -109 -18
-165 -32 -165 -40 0 -24 44 -103 58 -103 9 0 11 7 6 23 -4 12 -8 31 -8 42 -1
20 19 25 282 68 31 6 32 4 43 -39 6 -24 17 -44 24 -44 10 0 8 23 -6 103 -10
56 -19 105 -19 110 0 4 -4 7 -10 7 -5 0 -10 -20 -10 -44z"/>
<path d="M6615 3270 c-111 -37 -113 -156 -3 -208 64 -32 182 -48 237 -33 90
25 120 104 66 170 -47 55 -221 96 -300 71z m208 -60 c85 -32 112 -75 73 -115
-34 -34 -85 -40 -177 -22 -119 23 -176 69 -155 122 18 48 152 55 259 15z"/>
<path d="M6477 2922 c-15 -54 -27 -104 -27 -110 0 -26 19 -10 34 28 9 22 20
40 24 40 5 0 79 -20 166 -45 87 -25 165 -45 172 -45 10 0 14 17 14 65 0 71
-15 87 -25 28 -4 -21 -7 -41 -8 -44 -1 -3 -73 15 -160 39 l-157 45 6 36 c4 20
7 40 8 45 0 5 -4 10 -10 13 -7 2 -22 -36 -37 -95z"/>
<path d="M655 2986 c-62 -19 -100 -42 -129 -76 -45 -54 -30 -126 32 -156 77
-36 247 2 315 71 42 43 41 106 -3 148 -27 24 -37 27 -103 26 -39 0 -90 -6
-112 -13z m179 -30 c57 -24 57 -70 0 -115 -37 -29 -146 -61 -208 -61 -141 0
-123 110 27 159 102 33 135 36 181 17z"/>
<path d="M1133 2066 c-58 -27 -137 -96 -159 -137 -22 -43 -18 -94 10 -126 22
-25 31 -28 83 -28 46 1 69 7 107 29 144 85 195 188 127 257 -38 37 -94 39
-168 5z m145 -22 c56 -39 -7 -139 -129 -204 -95 -50 -159 -42 -159 21 0 50
108 151 198 184 49 18 63 18 90 -1z"/>
<path d="M6088 2075 c-74 -42 -61 -141 30 -220 15 -13 52 -38 83 -55 111 -59
209 -30 209 62 0 51 -20 87 -73 134 -88 78 -193 111 -249 79z m151 -62 c82
-49 141 -113 141 -152 0 -63 -51 -77 -135 -37 -92 43 -175 125 -175 172 0 64
76 72 169 17z"/>
<path d="M1380 1899 c0 -6 9 -24 21 -40 11 -16 18 -33 15 -37 -3 -5 -64 -58
-136 -118 -71 -60 -130 -114 -130 -120 0 -11 88 -74 103 -74 16 0 5 22 -23 48
l-30 27 72 60 c39 33 95 79 125 104 l54 44 33 -32 c23 -22 36 -29 41 -21 4 6
1 19 -7 28 -118 140 -138 159 -138 131z"/>
<path d="M5890 1821 c-35 -43 -66 -83 -68 -90 -7 -20 21 -12 50 16 24 23 29
24 45 12 10 -7 73 -60 141 -117 68 -57 125 -103 126 -101 2 2 16 28 31 58 32
64 20 93 -15 37 -12 -20 -24 -36 -26 -36 -7 0 -244 203 -244 209 0 3 9 20 20
36 20 31 26 55 13 55 -5 -1 -37 -36 -73 -79z"/>
<path d="M5706 1617 c-50 -46 -77 -78 -72 -85 5 -9 17 -4 42 15 l35 26 127
-126 c70 -70 132 -127 137 -127 16 0 68 101 58 111 -6 6 -19 -3 -34 -25 l-24
-36 -117 117 -117 117 30 33 c28 33 37 53 22 53 -5 0 -44 -33 -87 -73z"/>
<path d="M1532 1645 c-76 -33 -157 -121 -181 -197 -24 -75 18 -138 92 -138 53
0 103 29 165 94 88 93 107 173 53 227 -33 33 -75 37 -129 14z m106 -31 c46
-32 12 -116 -84 -204 -60 -56 -106 -77 -141 -64 -60 21 -46 89 39 180 59 63
116 103 148 104 9 0 26 -7 38 -16z"/>
<path d="M1766 1502 c-3 -5 8 -22 24 -37 17 -16 30 -32 30 -36 0 -4 -49 -69
-110 -144 -60 -74 -110 -140 -110 -145 0 -9 84 -50 105 -51 24 -1 13 22 -19
38 l-36 18 96 120 c53 66 99 124 104 129 4 4 25 -3 46 -18 35 -23 62 -27 49
-6 -6 10 -142 122 -162 133 -6 4 -14 3 -17 -1z"/>
<path d="M5492 1434 c-55 -44 -80 -70 -73 -77 6 -6 20 -2 39 12 17 11 35 21
40 21 6 0 61 -63 122 -141 122 -153 116 -150 165 -79 36 52 23 77 -16 30 -16
-19 -31 -32 -33 -29 -2 2 -49 60 -104 129 l-101 125 35 28 c30 25 37 47 16 47
-4 0 -44 -30 -90 -66z"/>
<path d="M1985 1329 c-4 -6 -5 -11 -4 -13 2 -1 18 -14 36 -28 l31 -25 -99
-149 c-54 -82 -99 -154 -99 -160 0 -6 26 -18 58 -27 70 -19 94 -6 34 20 l-42
18 90 138 90 138 39 -21 c47 -23 51 -24 51 -7 0 6 -17 23 -37 36 -126 81 -142
90 -148 80z"/>
<path d="M5263 1275 c-66 -46 -38 -180 59 -291 40 -45 77 -64 127 -64 53 0 91
43 91 103 0 77 -84 218 -150 252 -37 19 -100 19 -127 0z m135 -58 c43 -44 98
-140 107 -183 9 -48 -15 -84 -55 -84 -43 0 -109 65 -154 149 -37 72 -45 116
-23 143 28 35 76 26 125 -25z"/>
<path d="M2225 1182 c-11 -11 -4 -21 30 -41 l35 -21 -36 -72 c-20 -40 -58
-112 -85 -160 -27 -49 -49 -92 -49 -97 0 -9 119 -35 127 -27 10 10 -8 25 -37
31 -17 4 -30 12 -30 18 0 20 146 282 156 280 5 -1 26 -9 47 -17 32 -14 37 -14
37 -2 0 15 -185 117 -195 108z"/>
<path d="M5014 1127 c-100 -86 56 -391 185 -362 44 9 81 58 81 105 0 84 -71
223 -132 260 -45 27 -100 26 -134 -3z m119 -37 c45 -39 107 -163 110 -217 1
-46 -23 -83 -55 -83 -32 0 -97 70 -134 144 -37 76 -47 144 -24 171 20 24 66
18 103 -15z"/>
<path d="M2460 1050 c0 -6 16 -18 35 -27 19 -9 35 -22 35 -29 0 -7 -29 -81
-65 -166 -36 -84 -65 -158 -65 -164 0 -11 117 -30 127 -20 10 10 -9 26 -30 26
-52 1 -52 10 15 167 l63 150 43 -15 c42 -14 65 -10 46 7 -11 11 -179 81 -193
81 -6 0 -11 -5 -11 -10z"/>
<path d="M4788 1017 c-58 -23 -98 -45 -98 -53 0 -17 -1 -17 48 0 l40 15 69
-170 c37 -93 73 -169 79 -169 17 0 94 63 94 77 0 18 -7 16 -46 -8 l-34 -21 -9
24 c-5 13 -32 78 -60 146 -28 67 -51 126 -51 130 0 5 18 17 40 28 24 11 37 23
32 30 -5 7 -39 -2 -104 -29z"/>
<path d="M2753 920 c-53 -35 -96 -134 -101 -234 -4 -77 -3 -84 22 -113 65 -77
166 -30 214 100 40 106 37 201 -7 241 -31 28 -90 30 -128 6z m101 -26 c25 -25
30 -63 17 -129 -21 -106 -82 -205 -126 -205 -7 0 -23 8 -36 19 -31 25 -31 101
0 194 38 112 101 165 145 121z"/>
<path d="M4493 912 c-47 -37 -55 -119 -22 -226 27 -90 88 -156 143 -156 70 0
106 46 106 135 0 92 -58 223 -110 250 -38 20 -90 19 -117 -3z m103 -34 c37
-33 76 -135 82 -209 4 -62 3 -69 -21 -93 -51 -51 -117 13 -153 149 -22 80 -18
132 10 160 27 27 46 25 82 -7z"/>
</g>
</svg>
