<?xml version="1.0" standalone="no"?>
<!DOCTYPE svg PUBLIC "-//W3C//DTD SVG 20010904//EN"
 "http://www.w3.org/TR/2001/REC-SVG-20010904/DTD/svg10.dtd">
<svg version="1.0" xmlns="http://www.w3.org/2000/svg"
 width="1080.000000pt" height="1081.000000pt" viewBox="0 0 1080.000000 1081.000000"
 preserveAspectRatio="xMidYMid meet">
<metadata>
Created by potrace 1.16, written by Peter Selinger 2001-2019
</metadata>
<g transform="translate(0.000000,1081.000000) scale(0.100000,-0.100000)"
fill="#1A2A39" stroke="none">
<path d="M0 5400 l0 -5400 5400 0 5400 0 0 5400 0 5400 -5400 0 -5400 0 0
-5400z m5848 3646 c754 -100 1415 -399 1972 -892 620 -550 1025 -1270 1174
-2084 43 -239 51 -339 51 -650 0 -311 -8 -411 -51 -650 -149 -814 -554 -1534
-1174 -2084 -566 -501 -1244 -804 -2015 -898 -148 -18 -662 -18 -810 0 -771
94 -1449 397 -2015 898 -681 604 -1099 1407 -1212 2329 -18 148 -18 662 0 810
114 934 540 1742 1242 2356 546 478 1279 798 1985 868 61 6 124 13 140 15 77
11 597 -3 713 -18z"/>
<path d="M5105 9029 c-783 -72 -1484 -365 -2066 -865 -567 -488 -976 -1153
-1153 -1876 -66 -270 -94 -480 -103 -773 -25 -851 254 -1685 790 -2355 553
-692 1355 -1165 2222 -1309 223 -37 336 -46 605 -46 344 0 558 25 868 101
1299 318 2328 1347 2646 2646 76 310 101 524 101 868 0 344 -25 558 -101 868
-267 1091 -1042 2008 -2074 2453 -329 142 -649 228 -1020 275 -140 18 -578 26
-715 13z m-200 -557 l30 -177 48 3 c84 6 50 -14 -53 -31 -114 -20 -123 -20
-116 -8 3 5 22 12 41 15 20 4 38 13 41 20 4 11 -43 317 -50 324 -2 1 -22 -4
-44 -12 -25 -9 -42 -11 -42 -5 0 11 102 60 110 52 3 -2 19 -84 35 -181z m1084
172 c92 -65 51 -345 -56 -381 -94 -32 -155 62 -133 203 24 151 111 232 189
178z m-1394 -174 c14 -58 35 -136 46 -173 l20 -68 45 7 c78 11 47 -10 -48 -35
-51 -13 -99 -26 -105 -28 -7 -3 -13 -1 -13 5 0 6 19 17 43 25 32 11 41 19 39
33 -7 40 -75 289 -82 297 -3 4 -23 1 -43 -8 -20 -8 -37 -11 -37 -6 0 13 93 70
101 62 4 -3 19 -53 34 -111z m1691 93 c-14 -48 -85 -310 -88 -327 -2 -14 6
-22 31 -31 19 -6 36 -16 38 -22 3 -7 -37 -1 -96 15 -107 28 -131 45 -55 40
l46 -3 43 155 c47 167 47 170 -12 170 -18 0 -33 5 -33 10 0 6 29 10 66 10 58
0 65 -2 60 -17z m-1921 -106 c52 -55 89 -150 90 -230 0 -54 -3 -61 -33 -88
-82 -74 -185 3 -228 170 -20 78 -12 124 26 163 45 44 92 40 145 -15z m2202 25
c10 -6 4 -30 -23 -97 -19 -50 -48 -127 -64 -173 l-30 -83 40 -17 c37 -16 53
-32 31 -32 -5 0 -49 15 -97 34 -94 36 -125 62 -54 44 24 -6 45 -7 50 -2 4 5
24 53 44 107 21 55 46 121 56 148 l20 49 -40 6 c-22 4 -43 11 -46 15 -6 11 96
12 113 1z m291 -127 c8 -3 -13 -56 -68 -165 -44 -88 -80 -164 -80 -169 0 -5
17 -19 38 -31 70 -42 14 -31 -78 15 -96 48 -113 68 -37 42 l44 -15 71 144 c40
79 72 148 72 153 0 5 -15 13 -32 16 -41 9 -50 14 -43 25 4 6 73 -3 113 -15z
m-2777 -22 c56 -51 100 -142 107 -220 4 -59 3 -63 -26 -92 -59 -59 -139 -31
-200 69 -90 150 -72 280 38 280 32 0 48 -7 81 -37z m3033 -113 c35 -13 59 -64
53 -111 -13 -97 -106 -229 -177 -250 -30 -9 -42 -8 -68 5 -40 21 -55 50 -54
104 1 77 75 200 147 244 34 20 62 23 99 8z m-3393 -22 c6 -13 47 -82 92 -155
l80 -132 38 20 c43 21 49 23 49 11 0 -13 -169 -114 -183 -109 -6 2 5 15 25 28
21 13 38 28 38 34 0 9 -114 201 -153 258 -19 28 -19 28 -41 9 -54 -49 -62 -35
-11 21 39 43 50 45 66 15z m3637 -153 c23 -9 42 -20 42 -24 0 -3 -49 -71 -110
-151 l-110 -145 35 -28 c19 -16 32 -33 29 -38 -5 -8 -156 99 -169 121 -10 16
7 12 44 -11 41 -25 31 -33 150 126 l90 120 -40 20 c-22 12 -37 24 -32 28 4 4
12 6 17 3 6 -2 30 -12 54 -21z m-3803 -149 l108 -145 35 24 c19 13 39 22 44
19 9 -6 -12 -24 -105 -93 -63 -46 -92 -48 -39 -3 18 15 32 31 32 36 0 12 -190
266 -199 266 -4 0 -17 -14 -30 -30 -12 -17 -26 -28 -31 -25 -5 3 7 28 27 55
20 27 39 47 43 45 4 -2 55 -69 115 -149z m4082 -71 c42 -48 21 -133 -54 -216
-100 -111 -205 -131 -249 -47 -38 74 36 203 156 273 57 33 114 29 147 -10z
m-4391 -17 c126 -141 199 -218 208 -218 5 0 20 9 32 21 12 12 28 19 34 17 7
-2 -24 -37 -69 -77 -44 -40 -81 -67 -81 -59 0 8 11 25 25 38 14 13 25 27 25
32 0 4 -48 61 -107 126 -58 64 -108 119 -110 121 -2 3 -16 -11 -32 -30 -16
-19 -32 -32 -35 -29 -6 7 53 100 64 100 4 0 25 -19 46 -42z m-149 -179 c91
-44 183 -153 183 -218 0 -36 -27 -77 -60 -91 -96 -40 -290 119 -290 237 0 34
24 71 54 83 35 14 67 11 113 -11z m4730 -9 c59 -35 56 -109 -6 -188 -72 -90
-182 -146 -241 -122 -91 38 -78 143 29 243 55 51 120 86 161 87 14 0 40 -9 57
-20z m-3462 -830 c18 -20 19 -68 19 -1223 l1 -1202 125 -13 c69 -7 289 -16
490 -20 l365 -7 0 -55 0 -55 -887 -3 -888 -2 0 50 c0 32 5 52 13 55 6 2 138
14 292 27 l280 23 3 1116 2 1116 -267 -48 c-148 -27 -274 -49 -281 -49 -10 0
-12 15 -10 57 l3 57 345 97 c190 54 352 98 361 98 9 1 24 -8 34 -19z m1810 0
l22 -21 -5 -614 c-3 -338 -3 -615 0 -615 4 0 1320 649 1325 654 1 1 5 47 8
101 10 160 11 165 45 165 l30 0 0 -386 0 -385 -32 3 -33 3 -9 158 c-8 140 -10
157 -25 152 -49 -19 -1181 -561 -1181 -566 0 -5 1124 -522 1185 -545 10 -4 14
31 20 150 l7 156 34 0 34 0 0 -350 0 -350 -29 0 c-35 0 -37 6 -46 162 l-7 106
-651 302 c-359 167 -658 305 -665 307 -10 4 -12 -98 -10 -503 l3 -509 280 -25
280 -25 3 -52 3 -53 -680 0 -681 0 0 50 c0 32 5 52 13 55 6 2 138 14 292 27
l280 23 3 1116 2 1116 -267 -49 c-148 -26 -274 -48 -281 -48 -10 0 -12 15 -10
57 l3 57 345 97 c190 54 351 98 359 98 8 1 24 -8 36 -19z m2210 -64 c64 -27
76 -102 24 -161 -43 -49 -147 -96 -225 -103 -62 -5 -64 -4 -100 32 -32 32 -36
41 -31 73 11 64 77 119 187 154 68 22 101 23 145 5z m-5833 -100 c86 -36 158
-66 160 -66 2 0 12 16 22 35 18 32 45 51 33 23 -51 -126 -81 -187 -87 -183 -5
3 -2 24 6 47 8 23 13 43 10 45 -3 4 -256 114 -288 126 -14 5 -20 -2 -28 -33
-11 -42 -34 -57 -26 -17 3 12 8 39 11 60 4 24 11 37 18 34 7 -3 83 -34 169
-71z m5966 -207 c18 -28 32 -53 30 -54 -4 -4 -193 -63 -297 -93 l-53 -16 7
-50 c9 -72 -8 -49 -40 56 -29 93 -29 141 0 71 9 -24 22 -43 27 -43 5 0 79 21
163 47 l154 47 -20 37 c-21 42 -23 49 -11 49 4 0 22 -23 40 -51z m-6035 20
c144 -48 197 -145 115 -214 -24 -21 -40 -25 -89 -25 -34 0 -84 9 -116 20 -112
39 -162 94 -149 164 14 74 113 97 239 55z m6113 -330 c14 -28 24 -53 22 -54
-2 -2 -71 -18 -153 -35 -83 -17 -163 -34 -178 -37 -28 -6 -29 -8 -22 -49 10
-66 -12 -54 -25 14 -6 31 -16 73 -21 92 -14 53 -11 69 6 46 8 -11 15 -27 15
-35 1 -42 11 -43 171 -10 85 17 157 35 162 38 4 4 1 24 -8 44 -23 56 1 45 31
-14z m-6025 -61 c-27 -142 -46 -179 -46 -91 l0 46 -150 33 c-82 18 -156 33
-162 33 -9 1 -13 -14 -13 -45 0 -27 -4 -43 -10 -39 -5 3 -10 33 -10 67 l0 60
28 -7 c72 -18 304 -65 322 -65 11 0 20 6 20 14 0 23 20 69 27 63 3 -4 0 -35
-6 -69z m-170 -194 c71 -21 105 -47 119 -89 14 -42 0 -77 -43 -109 -25 -18
-42 -21 -130 -21 -113 1 -165 19 -206 71 -40 51 -15 120 53 150 42 18 141 17
207 -2z m6169 5 c100 -23 134 -110 66 -173 -82 -78 -281 -86 -341 -14 -63 74
-11 155 117 183 78 17 101 17 158 4z m-6175 -290 c50 -14 105 -68 105 -104 0
-41 -29 -82 -74 -102 -60 -27 -195 -25 -258 4 -107 49 -97 157 19 198 46 17
154 19 208 4z m6203 -11 c87 -22 121 -111 64 -168 -37 -36 -88 -50 -187 -50
-103 0 -159 24 -181 75 -49 117 111 192 304 143z m-6089 -374 c5 -55 7 -101 4
-104 -8 -8 -23 25 -23 51 0 14 -2 28 -5 30 -5 6 -325 -18 -332 -24 -2 -3 0
-21 5 -41 17 -59 -5 -51 -28 10 -11 31 -19 59 -17 61 3 2 63 8 133 13 71 6
153 13 182 16 l52 5 0 38 c0 35 8 56 17 47 2 -2 8 -48 12 -102z m5801 41 c0
-25 3 -45 8 -45 14 0 238 -20 286 -25 l49 -6 -6 45 c-4 26 -3 46 2 46 12 0 18
-18 26 -74 9 -54 30 -51 -207 -33 l-157 13 -7 -43 c-11 -72 -28 -51 -21 25 4
37 7 84 7 105 0 20 5 37 10 37 6 0 10 -20 10 -45z m-5766 -310 c9 -49 16 -96
16 -103 0 -26 -19 -1 -26 33 -3 20 -10 38 -15 40 -7 5 -318 -43 -327 -50 -1
-1 4 -21 12 -43 9 -23 11 -42 6 -42 -14 0 -63 101 -53 110 4 3 60 15 123 24
63 10 142 23 175 30 l59 12 -3 49 c-4 79 15 43 33 -60z m5976 48 c37 -10 66
-27 92 -53 48 -48 51 -86 9 -132 -28 -31 -34 -33 -109 -36 -98 -5 -178 16
-226 58 -42 37 -51 69 -32 114 30 72 122 89 266 49z m-292 -289 l-3 -47 135
-38 c74 -21 145 -41 157 -44 20 -5 23 -1 29 35 10 60 24 48 24 -20 0 -33 -3
-60 -6 -60 -6 0 -319 87 -342 95 -9 3 -19 -10 -29 -35 -9 -22 -20 -40 -26 -40
-5 0 -7 6 -5 13 3 6 16 51 29 100 26 96 42 113 37 41z m-5680 25 c69 -24 84
-109 30 -163 -65 -64 -227 -104 -300 -73 -44 18 -72 66 -63 106 20 90 221 169
333 130z m441 -913 c29 -16 51 -53 51 -90 0 -88 -203 -233 -294 -210 -35 8
-76 59 -76 93 0 64 106 171 206 206 50 18 79 18 113 1z m4993 -37 c129 -83
172 -177 109 -240 -38 -37 -86 -38 -161 -3 -114 53 -188 141 -176 209 17 87
121 102 228 34z m-4747 -297 c-3 -3 -20 9 -39 27 l-33 32 -127 -106 c-69 -59
-126 -111 -126 -115 0 -5 14 -19 32 -31 18 -13 26 -25 19 -27 -11 -4 -86 42
-97 59 -3 6 77 78 253 224 l24 20 -25 36 c-46 67 -15 49 56 -33 38 -44 66 -83
63 -86z m4445 142 c0 -3 -12 -21 -27 -40 -22 -30 -24 -37 -12 -48 11 -10 142
-120 230 -193 15 -12 19 -9 38 23 12 20 25 34 28 30 7 -7 -37 -106 -47 -106
-3 0 -31 21 -61 47 -30 25 -91 78 -137 116 l-83 70 -33 -32 c-59 -57 -46 -20
22 60 60 71 82 90 82 73z m-200 -241 l-31 -34 40 -47 c22 -26 74 -81 116 -122
l76 -75 27 33 c15 18 30 30 34 27 6 -6 -48 -105 -57 -105 -2 0 -62 60 -134
133 l-130 132 -30 -29 c-17 -16 -34 -26 -38 -22 -9 9 138 157 149 150 5 -3 -5
-21 -22 -41z m-4107 -23 c16 -18 27 -42 27 -58 -1 -98 -154 -251 -253 -252
-18 0 -39 11 -58 29 -52 52 -36 128 48 221 53 59 135 103 178 96 17 -3 42 -20
58 -36z m191 -177 c92 -73 91 -72 83 -79 -3 -3 -20 4 -37 16 -17 12 -37 19
-45 17 -21 -9 -207 -245 -201 -255 3 -5 19 -15 36 -22 28 -12 41 -30 21 -30
-10 0 -103 38 -109 45 -3 2 49 70 114 150 l118 147 -32 25 c-29 22 -41 43 -26
43 4 0 39 -25 78 -57z m3707 13 l-33 -34 104 -130 105 -130 31 31 c17 17 34
29 37 26 7 -7 -58 -99 -70 -98 -5 0 -49 50 -98 112 -48 62 -98 125 -111 141
l-24 29 -37 -23 c-66 -41 -48 -13 36 54 85 69 117 81 60 22z m-3476 -183 c89
-59 104 -79 35 -48 -22 10 -42 16 -44 14 -12 -14 -168 -252 -172 -262 -3 -8
11 -21 33 -31 21 -10 32 -21 26 -23 -16 -6 -115 26 -111 35 2 4 48 74 102 156
l99 150 -31 26 c-29 24 -40 40 -27 40 3 0 43 -25 90 -57z m3293 3 c58 -31 133
-132 154 -209 30 -113 -57 -183 -154 -124 -74 45 -148 167 -148 245 0 81 76
126 148 88z m-3062 -137 c87 -46 119 -69 94 -69 -8 1 -26 7 -40 15 -14 8 -30
14 -36 15 -9 0 -164 -275 -164 -292 0 -3 18 -10 40 -17 22 -7 38 -16 34 -22
-3 -5 -13 -8 -22 -5 -10 3 -36 10 -60 16 l-42 11 40 72 c23 40 62 114 88 165
41 81 45 95 31 102 -29 17 -64 49 -53 50 6 0 47 -19 90 -41z m2813 -3 c59 -31
130 -142 146 -228 9 -45 -9 -103 -38 -123 -12 -8 -39 -15 -59 -15 -82 0 -191
152 -192 267 -1 49 2 57 32 84 36 32 69 36 111 15z m-2512 -136 c61 -26 62
-46 1 -24 -22 7 -42 14 -43 14 -2 0 -17 -33 -33 -72 -17 -40 -46 -110 -66
-155 l-35 -83 45 -11 c25 -7 42 -15 37 -20 -8 -8 -108 3 -119 14 -3 3 1 18 9
34 23 43 129 305 125 308 -2 1 -18 10 -35 19 -18 9 -33 21 -33 26 0 9 31 -1
147 -50z m2273 42 c0 -5 -18 -17 -40 -27 -22 -10 -40 -19 -40 -21 0 -1 24 -60
54 -131 29 -70 57 -138 60 -150 9 -27 23 -29 54 -7 12 8 28 14 34 12 11 -4
-58 -64 -81 -70 -7 -2 -38 62 -79 162 -46 112 -73 164 -83 163 -8 0 -29 -4
-46 -8 -63 -14 -32 10 60 47 101 40 107 42 107 30z m-2006 -144 c27 -30 28
-34 24 -109 -10 -168 -115 -289 -209 -239 -57 31 -65 157 -15 266 32 69 51 92
91 110 40 18 74 10 109 -28z m1723 13 c61 -38 121 -188 110 -275 -15 -111
-125 -140 -193 -51 -61 80 -88 242 -51 298 31 48 83 59 134 28z"/>
<path d="M5904 8625 c-53 -37 -94 -232 -64 -305 13 -30 42 -45 76 -38 39 7 78
91 90 195 15 121 -36 195 -102 148z"/>
<path d="M4235 8459 c-39 -42 -10 -187 55 -278 47 -64 99 -67 129 -6 18 36 2
117 -39 202 -47 96 -104 128 -145 82z"/>
<path d="M3954 8336 c-68 -50 59 -326 149 -326 69 0 76 89 17 208 -58 116
-114 156 -166 118z"/>
<path d="M7034 8191 c-41 -25 -110 -130 -130 -197 -21 -73 -6 -108 48 -112 32
-3 42 2 77 38 50 51 111 171 111 216 0 37 -29 74 -57 74 -10 0 -32 -9 -49 -19z"/>
<path d="M7521 7819 c-33 -13 -134 -119 -154 -161 -40 -84 -5 -142 70 -117 45
14 126 87 165 148 30 48 37 108 16 129 -14 14 -63 15 -97 1z"/>
<path d="M2964 7595 c-24 -37 -3 -88 66 -156 102 -103 195 -129 221 -62 19 51
-59 159 -156 214 -63 36 -109 38 -131 4z"/>
<path d="M7699 7582 c-56 -36 -131 -117 -149 -161 -12 -29 -12 -37 1 -60 30
-53 107 -34 201 48 79 70 111 146 78 186 -20 25 -81 18 -131 -13z"/>
<path d="M8278 6700 c-55 -14 -149 -64 -177 -94 -30 -32 -32 -83 -5 -103 48
-37 250 26 304 94 57 73 -11 130 -122 103z"/>
<path d="M2292 6418 c-28 -14 -38 -52 -22 -83 25 -47 167 -105 258 -105 33 0
49 6 68 25 31 31 26 58 -19 98 -64 56 -229 94 -285 65z"/>
<path d="M2212 5831 c-71 -18 -93 -72 -47 -115 64 -59 282 -73 325 -21 18 22
15 63 -6 86 -33 37 -200 68 -272 50z"/>
<path d="M8385 5813 c-89 -26 -122 -85 -74 -129 18 -16 37 -19 128 -19 91 0
113 4 154 23 47 24 63 49 55 89 -9 49 -155 69 -263 36z"/>
<path d="M2217 5540 c-90 -16 -126 -60 -90 -109 30 -40 83 -53 195 -49 79 3
103 8 125 24 53 40 35 105 -34 123 -60 15 -144 20 -196 11z"/>
<path d="M8375 5523 c-66 -24 -87 -62 -58 -101 54 -73 299 -66 346 9 16 26 -1
67 -36 86 -48 25 -188 28 -252 6z"/>
<path d="M8304 4938 c-50 -24 -47 -81 6 -119 34 -25 132 -49 198 -49 125 0
165 88 64 139 -73 37 -219 53 -268 29z"/>
<path d="M2405 4666 c-157 -38 -225 -132 -127 -173 91 -38 312 46 312 119 -1
63 -68 83 -185 54z"/>
<path d="M2862 3743 c-115 -62 -183 -144 -162 -197 20 -53 93 -44 197 23 73
47 116 101 116 143 0 62 -67 76 -151 31z"/>
<path d="M7803 3755 c-17 -12 -23 -26 -23 -53 0 -30 8 -44 53 -87 98 -95 218
-133 252 -81 23 35 9 73 -45 126 -86 83 -193 126 -237 95z"/>
<path d="M3239 3312 c-76 -49 -159 -158 -159 -210 0 -27 32 -52 66 -52 78 0
224 147 224 226 0 67 -56 83 -131 36z"/>
<path d="M6987 2962 c-35 -39 -16 -116 55 -219 31 -46 92 -93 120 -93 29 0 58
37 58 74 0 37 -45 130 -87 180 -60 71 -114 93 -146 58z"/>
<path d="M6740 2813 c-29 -37 -23 -84 24 -179 59 -118 140 -169 180 -112 21
30 20 57 -4 124 -37 107 -110 194 -162 194 -9 0 -26 -12 -38 -27z"/>
<path d="M4492 2610 c-46 -28 -102 -163 -102 -247 0 -106 89 -126 143 -31 92
159 65 342 -41 278z"/>
<path d="M6228 2609 c-44 -25 -39 -147 11 -256 34 -73 70 -101 109 -87 42 15
56 68 38 153 -31 146 -97 226 -158 190z"/>
</g>
</svg>
